<svg width="220" height="218" viewBox="0 0 220 218" fill="none" xmlns="http://www.w3.org/2000/svg">
  <path
    d="M161.333 49.2381C161.333 36.1793 156.146 23.6554 146.912 14.4215C137.678 5.18757 125.154 9.85909e-07 112.095 0C99.0365 -9.85909e-07 86.5126 5.18757 77.2787 14.4215C68.0448 23.6554 62.8572 36.1793 62.8572 49.2381L96.34 49.2381C96.34 45.0595 97.9999 41.0521 100.955 38.0974C103.909 35.1427 107.917 33.4828 112.095 33.4828C116.274 33.4828 120.281 35.1427 123.236 38.0974C126.191 41.0521 127.851 45.0595 127.851 49.2381H161.333Z"
    fill="#7970EA" />
  <path d="M62.8572 48.1905H96.381V115.238H62.8572V48.1905Z" fill="#7970EA" />
  <path
    d="M49.2381 58.6666C36.1793 58.6666 23.6554 63.8542 14.4215 73.0881C5.18757 82.3221 9.85909e-07 94.846 0 107.905C-9.85909e-07 120.963 5.18757 133.487 14.4215 142.721C23.6554 151.955 36.1793 157.143 49.2381 157.143L49.2381 123.66C45.0595 123.66 41.0521 122 38.0974 119.045C35.1427 116.091 33.4828 112.083 33.4828 107.905C33.4828 103.726 35.1427 99.7187 38.0974 96.764C41.0521 93.8093 45.0595 92.1494 49.2381 92.1494V58.6666Z"
    fill="#7970EA" />
  <path d="M48.1905 157.143V123.619H115.238V157.143H48.1905Z" fill="#7970EA" />
  <path
    d="M62.8571 168.667C62.8571 181.725 68.0446 194.249 77.2786 203.483C86.5125 212.717 99.0364 217.905 112.095 217.905C125.154 217.905 137.678 212.717 146.912 203.483C156.146 194.249 161.333 181.725 161.333 168.667L127.85 168.667C127.85 172.845 126.191 176.853 123.236 179.807C120.281 182.762 116.274 184.422 112.095 184.422C107.917 184.422 103.909 182.762 100.954 179.807C97.9998 176.853 96.3398 172.845 96.3398 168.667H62.8571Z"
    fill="#7970EA" />
  <path d="M161.333 169.714H127.809L127.809 102.667H161.333V169.714Z" fill="#7970EA" />
  <path
    d="M170.762 157.143C183.821 157.143 196.345 151.955 205.578 142.721C214.812 133.487 220 120.964 220 107.905C220 94.846 214.812 82.3221 205.578 73.0882C196.345 63.8543 183.821 58.6667 170.762 58.6667L170.762 92.1495C174.94 92.1495 178.948 93.8094 181.903 96.7641C184.857 99.7188 186.517 103.726 186.517 107.905C186.517 112.083 184.857 116.091 181.903 119.045C178.948 122 174.94 123.66 170.762 123.66L170.762 157.143Z"
    fill="#7970EA" />
  <path d="M171.81 58.6667V92.1905L104.762 92.1905L104.762 58.6667L171.81 58.6667Z" fill="#7970EA" />
</svg>