<svg width="200" height="200" viewBox="0 0 200 200" fill="none" xmlns="http://www.w3.org/2000/svg">
<circle cx="100" cy="100" r="100" fill="#6A60E8"/>
<path d="M76.9199 151.047L101.819 125.003C102.677 124.335 104.853 123 106.684 123C108.974 123 113.553 122.714 115.27 124.431C116.644 125.805 141.218 149.807 153.334 161.636H93.5192C92.5653 161.541 89.7987 160.892 86.3644 159.06C82.93 157.229 78.6371 152.955 76.9199 151.047Z" fill="white"/>
<path d="M153.047 38H98.0976C95.1403 38 87.7946 39.3737 82.0707 44.8687C76.3468 50.3636 54.119 73.8698 43.7205 84.936C41.431 88.3704 40.4129 91.3634 40 94.6667V99.2458V103.825C40 116.902 55.3492 126.615 63.468 134.734C63.697 134.963 87.7946 110.026 99.8148 97.5286H58.0303L78.3502 76.9226H112.121C113.171 76.9226 115.67 76.5791 117.273 75.2054C118.875 73.8316 141.79 49.8294 153.047 38Z" fill="white"/>
</svg>
