<svg width="786" height="218" viewBox="0 0 786 218" fill="none" xmlns="http://www.w3.org/2000/svg">
<path d="M161.333 49.2381C161.333 36.1793 156.146 23.6554 146.912 14.4215C137.678 5.18757 125.154 9.85909e-07 112.095 0C99.0365 -9.85909e-07 86.5126 5.18757 77.2787 14.4215C68.0448 23.6554 62.8572 36.1793 62.8572 49.2381L96.34 49.2381C96.34 45.0595 97.9999 41.0521 100.955 38.0974C103.909 35.1427 107.917 33.4828 112.095 33.4828C116.274 33.4828 120.281 35.1427 123.236 38.0974C126.191 41.0521 127.851 45.0595 127.851 49.2381H161.333Z" fill="#7970EA"/>
<path d="M62.8572 48.1905H96.381V115.238H62.8572V48.1905Z" fill="#7970EA"/>
<path d="M49.2381 58.6667C36.1793 58.6667 23.6554 63.8542 14.4215 73.0882C5.18757 82.3221 9.85909e-07 94.846 0 107.905C-9.85909e-07 120.964 5.18757 133.487 14.4215 142.721C23.6554 151.955 36.1793 157.143 49.2381 157.143L49.2381 123.66C45.0595 123.66 41.0521 122 38.0974 119.045C35.1427 116.091 33.4828 112.083 33.4828 107.905C33.4828 103.726 35.1427 99.7188 38.0974 96.7641C41.0521 93.8094 45.0595 92.1494 49.2381 92.1494V58.6667Z" fill="#7970EA"/>
<path d="M48.1905 157.143V123.619H115.238V157.143H48.1905Z" fill="#7970EA"/>
<path d="M62.8571 168.667C62.8571 181.725 68.0446 194.249 77.2786 203.483C86.5125 212.717 99.0364 217.905 112.095 217.905C125.154 217.905 137.678 212.717 146.912 203.483C156.146 194.249 161.333 181.725 161.333 168.667L127.85 168.667C127.85 172.845 126.191 176.853 123.236 179.807C120.281 182.762 116.274 184.422 112.095 184.422C107.917 184.422 103.909 182.762 100.954 179.807C97.9998 176.853 96.3398 172.845 96.3398 168.667H62.8571Z" fill="#7970EA"/>
<path d="M161.333 169.714H127.809L127.809 102.667H161.333V169.714Z" fill="#7970EA"/>
<path d="M170.762 157.143C183.821 157.143 196.345 151.955 205.578 142.721C214.812 133.487 220 120.964 220 107.905C220 94.846 214.812 82.3221 205.578 73.0882C196.345 63.8542 183.821 58.6667 170.762 58.6667L170.762 92.1494C174.94 92.1494 178.948 93.8094 181.903 96.7641C184.857 99.7188 186.517 103.726 186.517 107.905C186.517 112.083 184.857 116.091 181.903 119.045C178.948 122 174.94 123.66 170.762 123.66L170.762 157.143Z" fill="#7970EA"/>
<path d="M171.81 58.6667V92.1905L104.762 92.1905L104.762 58.6667L171.81 58.6667Z" fill="#7970EA"/>
<path d="M300.2 142L275 107.9H264.9L295.5 69H314.3L286.8 103.9L286.6 96.8L320 142H300.2ZM252.2 142V69H268.6V142H252.2ZM329.495 142V87.2H342.195V110.7H341.895C341.895 102.967 343.529 97 346.795 92.8C350.129 88.6 354.929 86.5 361.195 86.5H363.295V100.3H359.295C354.895 100.3 351.495 101.5 349.095 103.9C346.695 106.233 345.495 109.633 345.495 114.1V142H329.495ZM377.185 142V87.2H393.185V142H377.185ZM369.885 99V87.2H393.185V99H369.885ZM383.385 81.8C380.385 81.8 378.152 81.0333 376.685 79.5C375.285 77.9 374.585 75.9 374.585 73.5C374.585 71.0333 375.285 69.0333 376.685 67.5C378.152 65.9 380.385 65.1 383.385 65.1C386.385 65.1 388.585 65.9 389.985 67.5C391.452 69.0333 392.185 71.0333 392.185 73.5C392.185 75.9 391.452 77.9 389.985 79.5C388.585 81.0333 386.385 81.8 383.385 81.8ZM410.984 162V87.2H423.684V110.9L421.984 110.8C422.25 105.333 423.384 100.733 425.384 97C427.384 93.2 430.084 90.3667 433.484 88.5C436.884 86.5667 440.717 85.6 444.984 85.6C448.784 85.6 452.217 86.3 455.284 87.7C458.417 89.1 461.084 91.0667 463.284 93.6C465.55 96.0667 467.25 99 468.384 102.4C469.584 105.733 470.184 109.4 470.184 113.4V115.7C470.184 119.633 469.617 123.333 468.484 126.8C467.35 130.2 465.684 133.167 463.484 135.7C461.35 138.233 458.717 140.233 455.584 141.7C452.517 143.1 448.984 143.8 444.984 143.8C440.85 143.8 437.117 142.967 433.784 141.3C430.517 139.567 427.884 136.967 425.884 133.5C423.884 129.967 422.784 125.5 422.584 120.1L426.984 126.1V162H410.984ZM440.484 130.4C443.217 130.4 445.584 129.733 447.584 128.4C449.65 127.067 451.25 125.2 452.384 122.8C453.517 120.4 454.084 117.633 454.084 114.5C454.084 111.367 453.517 108.633 452.384 106.3C451.25 103.967 449.684 102.167 447.684 100.9C445.684 99.5667 443.284 98.9 440.484 98.9C438.084 98.9 435.817 99.4667 433.684 100.6C431.55 101.733 429.817 103.367 428.484 105.5C427.217 107.567 426.584 110.1 426.584 113.1V116.8C426.584 119.667 427.25 122.133 428.584 124.2C429.984 126.2 431.75 127.733 433.884 128.8C436.017 129.867 438.217 130.4 440.484 130.4ZM509.196 142.7C503.663 142.7 499.196 142.033 495.796 140.7C492.396 139.3 489.896 137 488.296 133.8C486.763 130.533 485.996 126.133 485.996 120.6V72.4H500.896V121.2C500.896 123.8 501.563 125.8 502.896 127.2C504.296 128.533 506.263 129.2 508.796 129.2H516.896V142.7H509.196ZM477.696 98.9V87.2H516.896V98.9H477.696ZM557.16 143.9C552.36 143.9 548.093 143.167 544.36 141.7C540.627 140.167 537.46 138.1 534.86 135.5C532.327 132.9 530.393 129.933 529.06 126.6C527.727 123.2 527.06 119.633 527.06 115.9V113.6C527.06 109.8 527.727 106.2 529.06 102.8C530.46 99.3333 532.46 96.3 535.06 93.7C537.727 91.1 540.927 89.0667 544.66 87.6C548.393 86.0667 552.56 85.3 557.16 85.3C561.893 85.3 566.093 86.0667 569.76 87.6C573.493 89.0667 576.66 91.1 579.26 93.7C581.86 96.3 583.86 99.3333 585.26 102.8C586.66 106.2 587.36 109.8 587.36 113.6V115.9C587.36 119.633 586.693 123.2 585.36 126.6C584.027 129.933 582.06 132.9 579.46 135.5C576.927 138.1 573.793 140.167 570.06 141.7C566.327 143.167 562.027 143.9 557.16 143.9ZM557.16 130.4C560.293 130.4 562.893 129.733 564.96 128.4C567.027 127.067 568.593 125.2 569.66 122.8C570.793 120.4 571.36 117.733 571.36 114.8C571.36 111.667 570.793 108.933 569.66 106.6C568.527 104.2 566.893 102.3 564.76 100.9C562.693 99.5 560.16 98.8 557.16 98.8C554.227 98.8 551.693 99.5 549.56 100.9C547.427 102.3 545.793 104.2 544.66 106.6C543.593 108.933 543.06 111.667 543.06 114.8C543.06 117.733 543.593 120.4 544.66 122.8C545.727 125.2 547.327 127.067 549.46 128.4C551.593 129.733 554.16 130.4 557.16 130.4ZM602.427 142V69H618.827V142H602.427ZM616.827 142V127.6H647.427V142H616.827ZM693.388 142V125.8H690.688V108.2C690.688 105.4 690.022 103.3 688.688 101.9C687.355 100.5 685.222 99.8 682.288 99.8C680.822 99.8 678.888 99.8333 676.488 99.9C674.088 99.9667 671.622 100.067 669.088 100.2C666.555 100.333 664.255 100.467 662.188 100.6V87.1C663.722 86.9667 665.522 86.8333 667.588 86.7C669.655 86.5667 671.788 86.4667 673.988 86.4C676.188 86.3333 678.255 86.3 680.188 86.3C685.788 86.3 690.488 87.1 694.288 88.7C698.155 90.3 701.088 92.7333 703.088 96C705.088 99.2 706.088 103.333 706.088 108.4V142H693.388ZM675.888 143.4C671.955 143.4 668.488 142.7 665.488 141.3C662.555 139.9 660.255 137.9 658.588 135.3C656.922 132.633 656.088 129.467 656.088 125.8C656.088 121.8 657.122 118.533 659.188 116C661.255 113.4 664.155 111.5 667.888 110.3C671.622 109.033 675.922 108.4 680.788 108.4H692.488V117.3H680.688C677.888 117.3 675.722 118 674.188 119.4C672.722 120.733 671.988 122.567 671.988 124.9C671.988 127.1 672.722 128.9 674.188 130.3C675.722 131.633 677.888 132.3 680.688 132.3C682.488 132.3 684.088 132 685.488 131.4C686.955 130.733 688.155 129.633 689.088 128.1C690.022 126.567 690.555 124.433 690.688 121.7L694.488 125.7C694.155 129.5 693.222 132.7 691.688 135.3C690.222 137.9 688.155 139.9 685.488 141.3C682.888 142.7 679.688 143.4 675.888 143.4ZM756.363 143.8C751.897 143.8 747.963 142.867 744.563 141C741.163 139.067 738.497 136.3 736.563 132.7C734.63 129.1 733.597 124.7 733.463 119.5H735.363V142H722.663V69H738.663V106.1L734.863 110.9C735.063 105.367 736.097 100.733 737.963 97C739.897 93.2 742.53 90.3667 745.863 88.5C749.197 86.5667 752.997 85.6 757.263 85.6C760.997 85.6 764.363 86.3 767.363 87.7C770.43 89.0333 773.03 90.9667 775.163 93.5C777.297 95.9667 778.93 98.9 780.063 102.3C781.263 105.7 781.863 109.4 781.863 113.4V115.6C781.863 119.6 781.263 123.3 780.063 126.7C778.93 130.1 777.23 133.1 774.963 135.7C772.763 138.233 770.097 140.233 766.963 141.7C763.83 143.1 760.297 143.8 756.363 143.8ZM752.163 130.4C754.897 130.4 757.263 129.733 759.263 128.4C761.33 127.067 762.93 125.2 764.063 122.8C765.197 120.333 765.763 117.567 765.763 114.5C765.763 111.367 765.197 108.633 764.063 106.3C762.93 103.967 761.33 102.167 759.263 100.9C757.263 99.5667 754.897 98.9 752.163 98.9C749.763 98.9 747.497 99.4667 745.363 100.6C743.23 101.733 741.497 103.367 740.163 105.5C738.897 107.567 738.263 110.1 738.263 113.1V116.8C738.263 119.667 738.93 122.133 740.263 124.2C741.663 126.2 743.43 127.733 745.563 128.8C747.697 129.867 749.897 130.4 752.163 130.4Z" fill="#7970EA"/>
</svg>
