<svg width="770" height="200" viewBox="0 0 770 200" fill="none" xmlns="http://www.w3.org/2000/svg">
<path d="M254.8 120L253.9 101.3L287.4 66H305.4L275.2 98.5L266.2 108.1L254.8 120ZM240.3 136V66H256.4V136H240.3ZM288.2 136L263.3 105.5L273.9 94L307.1 136H288.2ZM315.247 136V82.2H330.147V97.4L328.047 93C329.647 89.2 332.214 86.3333 335.747 84.4C339.28 82.4 343.58 81.4 348.647 81.4V95.8C347.98 95.7333 347.38 95.7 346.847 95.7C346.314 95.6333 345.747 95.6 345.147 95.6C340.88 95.6 337.414 96.8333 334.747 99.3C332.147 101.7 330.847 105.467 330.847 110.6V136H315.247ZM361.02 136V82.2H376.62V136H361.02ZM368.82 74.7C365.954 74.7 363.62 73.8667 361.82 72.2C360.02 70.5333 359.12 68.4667 359.12 66C359.12 63.5333 360.02 61.4667 361.82 59.8C363.62 58.1333 365.954 57.3 368.82 57.3C371.687 57.3 374.02 58.1 375.82 59.7C377.62 61.2333 378.52 63.2333 378.52 65.7C378.52 68.3 377.62 70.4667 375.82 72.2C374.087 73.8667 371.754 74.7 368.82 74.7ZM425.898 136.8C421.365 136.8 417.398 135.8 413.998 133.8C410.598 131.8 407.932 128.767 405.998 124.7C404.132 120.567 403.198 115.367 403.198 109.1C403.198 102.767 404.098 97.5667 405.898 93.5C407.698 89.4333 410.298 86.4 413.698 84.4C417.098 82.4 421.165 81.4 425.898 81.4C430.965 81.4 435.498 82.5667 439.498 84.9C443.565 87.1667 446.765 90.3667 449.098 94.5C451.498 98.6333 452.698 103.5 452.698 109.1C452.698 114.767 451.498 119.667 449.098 123.8C446.765 127.933 443.565 131.133 439.498 133.4C435.498 135.667 430.965 136.8 425.898 136.8ZM394.098 155.4V82.2H408.998V93.2L408.698 109.2L409.698 125.1V155.4H394.098ZM423.198 124C425.798 124 428.098 123.4 430.098 122.2C432.165 121 433.798 119.3 434.998 117.1C436.265 114.833 436.898 112.167 436.898 109.1C436.898 105.967 436.265 103.3 434.998 101.1C433.798 98.9 432.165 97.2 430.098 96C428.098 94.8 425.798 94.2 423.198 94.2C420.598 94.2 418.265 94.8 416.198 96C414.132 97.2 412.498 98.9 411.298 101.1C410.098 103.3 409.498 105.967 409.498 109.1C409.498 112.167 410.098 114.833 411.298 117.1C412.498 119.3 414.132 121 416.198 122.2C418.265 123.4 420.598 124 423.198 124ZM488.141 136.8C481.808 136.8 476.875 135.2 473.341 132C469.808 128.733 468.041 123.9 468.041 117.5V70.3H483.641V117.3C483.641 119.567 484.241 121.333 485.441 122.6C486.641 123.8 488.275 124.4 490.341 124.4C492.808 124.4 494.908 123.733 496.641 122.4L500.841 133.4C499.241 134.533 497.308 135.4 495.041 136C492.841 136.533 490.541 136.8 488.141 136.8ZM459.741 95.4V83.4H497.041V95.4H459.741ZM536.538 136.8C530.805 136.8 525.705 135.6 521.238 133.2C516.838 130.8 513.338 127.533 510.738 123.4C508.205 119.2 506.938 114.433 506.938 109.1C506.938 103.7 508.205 98.9333 510.738 94.8C513.338 90.6 516.838 87.3333 521.238 85C525.705 82.6 530.805 81.4 536.538 81.4C542.205 81.4 547.272 82.6 551.738 85C556.205 87.3333 559.705 90.5667 562.238 94.7C564.772 98.8333 566.038 103.633 566.038 109.1C566.038 114.433 564.772 119.2 562.238 123.4C559.705 127.533 556.205 130.8 551.738 133.2C547.272 135.6 542.205 136.8 536.538 136.8ZM536.538 124C539.138 124 541.472 123.4 543.538 122.2C545.605 121 547.238 119.3 548.438 117.1C549.638 114.833 550.238 112.167 550.238 109.1C550.238 105.967 549.638 103.3 548.438 101.1C547.238 98.9 545.605 97.2 543.538 96C541.472 94.8 539.138 94.2 536.538 94.2C533.938 94.2 531.605 94.8 529.538 96C527.472 97.2 525.805 98.9 524.538 101.1C523.338 103.3 522.738 105.967 522.738 109.1C522.738 112.167 523.338 114.833 524.538 117.1C525.805 119.3 527.472 121 529.538 122.2C531.605 123.4 533.938 124 536.538 124ZM580.566 136V66H596.766V122.8H631.866V136H580.566ZM676.208 136V125.5L675.208 123.2V104.4C675.208 101.067 674.174 98.4667 672.108 96.6C670.108 94.7333 667.008 93.8 662.808 93.8C659.941 93.8 657.108 94.2667 654.308 95.2C651.574 96.0667 649.241 97.2667 647.308 98.8L641.708 87.9C644.641 85.8333 648.174 84.2333 652.308 83.1C656.441 81.9667 660.641 81.4 664.908 81.4C673.108 81.4 679.474 83.3333 684.008 87.2C688.541 91.0667 690.808 97.1 690.808 105.3V136H676.208ZM659.808 136.8C655.608 136.8 652.008 136.1 649.008 134.7C646.008 133.233 643.708 131.267 642.108 128.8C640.508 126.333 639.708 123.567 639.708 120.5C639.708 117.3 640.474 114.5 642.008 112.1C643.608 109.7 646.108 107.833 649.508 106.5C652.908 105.1 657.341 104.4 662.808 104.4H677.108V113.5H664.508C660.841 113.5 658.308 114.1 656.908 115.3C655.574 116.5 654.908 118 654.908 119.8C654.908 121.8 655.674 123.4 657.208 124.6C658.808 125.733 660.974 126.3 663.708 126.3C666.308 126.3 668.641 125.7 670.708 124.5C672.774 123.233 674.274 121.4 675.208 119L677.608 126.2C676.474 129.667 674.408 132.3 671.408 134.1C668.408 135.9 664.541 136.8 659.808 136.8ZM739.727 136.8C734.993 136.8 730.927 135.8 727.527 133.8C724.127 131.8 721.527 128.767 719.727 124.7C717.927 120.567 717.027 115.367 717.027 109.1C717.027 102.767 717.96 97.5667 719.827 93.5C721.76 89.4333 724.427 86.4 727.827 84.4C731.227 82.4 735.193 81.4 739.727 81.4C744.793 81.4 749.327 82.5333 753.327 84.8C757.393 87.0667 760.593 90.2667 762.927 94.4C765.327 98.5333 766.527 103.433 766.527 109.1C766.527 114.7 765.327 119.567 762.927 123.7C760.593 127.833 757.393 131.067 753.327 133.4C749.327 135.667 744.793 136.8 739.727 136.8ZM707.927 136V61.8H723.527V93.1L722.527 109L722.827 125V136H707.927ZM737.027 124C739.627 124 741.927 123.4 743.927 122.2C745.993 121 747.627 119.3 748.827 117.1C750.093 114.833 750.727 112.167 750.727 109.1C750.727 105.967 750.093 103.3 748.827 101.1C747.627 98.9 745.993 97.2 743.927 96C741.927 94.8 739.627 94.2 737.027 94.2C734.427 94.2 732.093 94.8 730.027 96C727.96 97.2 726.327 98.9 725.127 101.1C723.927 103.3 723.327 105.967 723.327 109.1C723.327 112.167 723.927 114.833 725.127 117.1C726.327 119.3 727.96 121 730.027 122.2C732.093 123.4 734.427 124 737.027 124Z" fill="#6A60E8"/>
<circle cx="100" cy="100" r="100" fill="#6A60E8"/>
<path d="M76.9199 151.047L101.819 125.003C102.677 124.335 104.853 123 106.684 123C108.974 123 113.553 122.714 115.27 124.431C116.644 125.805 141.218 149.807 153.334 161.636H93.5192C92.5653 161.541 89.7987 160.892 86.3644 159.06C82.93 157.229 78.6371 152.955 76.9199 151.047Z" fill="white"/>
<path d="M153.047 37.9999H98.0976C95.1403 37.9999 87.7946 39.3737 82.0707 44.8686C76.3468 50.3636 54.119 73.8697 43.7205 84.936C41.431 88.3703 40.4129 91.3634 40 94.6666V99.2457V103.825C40 116.902 55.3492 126.615 63.468 134.734C63.697 134.963 87.7946 110.026 99.8148 97.5286H58.0303L78.3502 76.9225H112.121C113.171 76.9225 115.67 76.5791 117.273 75.2053C118.875 73.8316 141.79 49.8293 153.047 37.9999Z" fill="white"/>
</svg>
