<svg width="787" height="200" viewBox="0 0 787 200" fill="none" xmlns="http://www.w3.org/2000/svg">
<path d="M247.28 59.6H262.512V92.416H274.384L293.312 59.6H310.448L287.488 98.688L312.352 138H294.88L274.272 105.408H262.512V138H247.28V59.6ZM323.033 82.224H336.697V91.52L345.657 82.224H361.561V94.768H348.681L337.817 105.968V138H323.033V82.224ZM371.661 70.576V63.408L376.813 58.256H384.653L389.805 63.408V70.576L384.653 75.728H376.813L371.661 70.576ZM373.341 82.224H388.125V138H373.341V82.224ZM406.097 82.224H419.761V90.4L427.937 82.224H449.665L461.201 93.872V126.352L449.665 138H428.049L420.881 132.064V161.744H406.097V82.224ZM442.497 125.456L446.417 121.536V98.688L442.497 94.768H429.841L420.881 103.84V117.504L429.729 125.456H442.497ZM480.231 126.576V94.656H470.151V82.224H480.455V64.08H495.015V82.224H512.039V94.768H495.015V121.76L498.823 125.456H512.039V138H491.767L480.231 126.576ZM522.166 126.352V93.872L533.702 82.224H565.734L577.27 93.872V126.352L565.734 138H533.702L522.166 126.352ZM558.566 125.68L562.486 121.76V98.464L558.566 94.544H540.87L536.95 98.464V121.76L540.87 125.68H558.566ZM593.487 59.6H608.719V125.12H647.919V138H593.487V59.6ZM656.294 127.696V114.928L666.598 104.624H694.934V97.568L691.462 94.096H674.662L671.302 97.568V100.704H656.742V94.32L668.726 82.224H697.51L709.494 94.32V138H696.166V130.048L687.878 138H666.598L656.294 127.696ZM686.87 126.576L694.934 118.848V115.152H673.878L670.854 118.176V123.776L673.654 126.576H686.87ZM725.756 125.904V58.032H740.54V89.952L748.716 82.224H769.1L780.636 93.872V126.352L769.1 138H737.74L725.756 125.904ZM761.596 125.456L765.852 121.088V99.136L761.596 94.768H750.62L740.54 104.848V121.088L744.796 125.456H761.596Z" fill="#6A60E8"/>
<circle cx="100" cy="100" r="100" fill="#6A60E8"/>
<path d="M76.9199 151.047L101.819 125.003C102.677 124.335 104.853 123 106.684 123C108.974 123 113.553 122.714 115.27 124.431C116.644 125.805 141.218 149.807 153.334 161.636H93.5192C92.5653 161.541 89.7987 160.892 86.3644 159.06C82.93 157.229 78.6371 152.955 76.9199 151.047Z" fill="white"/>
<path d="M153.047 38H98.0976C95.1403 38 87.7946 39.3737 82.0707 44.8687C76.3468 50.3636 54.119 73.8698 43.7205 84.936C41.431 88.3704 40.4129 91.3634 40 94.6667V99.2458V103.825C40 116.902 55.3492 126.615 63.468 134.734C63.697 134.963 87.7946 110.026 99.8148 97.5286H58.0303L78.3502 76.9226H112.121C113.171 76.9226 115.67 76.5791 117.273 75.2054C118.875 73.8316 141.79 49.8294 153.047 38Z" fill="white"/>
</svg>
